ply
format ascii 1.0
comment Created in Blender version 4.0.2
element vertex 65
property float x
property float y
property float z
property float nx
property float ny
property float nz
property float s
property float t
element face 62
property list uchar uint vertex_indices
end_header
0 -1 -1 0 -0.5032898 -0.8641176 0.25 0.49
0 1 0 -3.1287666e-08 1 1.7878666e-08 0.25 0.25
0.19509032 -1 -0.98078525 0.1685811 -0.5032902 -0.8475137 0.29682168 0.48538846
0.38268346 -1 -0.9238795 0.3306835 -0.5032899 -0.7983407 0.34184402 0.47173107
0.55557024 -1 -0.8314696 0.48007846 -0.50328964 -0.7184875 0.38333684 0.4495527
0.70710677 -1 -0.70710677 0.6110235 -0.50328976 -0.6110235 0.41970563 0.41970563
0.8314696 -1 -0.55557024 0.71848714 -0.50329024 -0.48007834 0.4495527 0.38333684
0.9238795 -1 -0.38268346 0.7983407 -0.50328994 -0.3306835 0.47173107 0.34184402
0.98078525 -1 -0.19509032 0.84751374 -0.5032902 -0.16858104 0.48538846 0.29682168
1 -1 0 0.8641177 -0.50328976 0 0.49 0.25
0.98078525 -1 0.19509032 0.8475137 -0.5032903 0.16858105 0.48538846 0.20317832
0.9238795 -1 0.38268346 0.7983407 -0.50328994 0.3306835 0.47173107 0.15815598
0.8314696 -1 0.55557024 0.7184878 -0.50328976 0.48007795 0.4495527 0.11666314
0.70710677 -1 0.70710677 0.6110235 -0.5032898 0.6110235 0.41970563 0.080294386
0.55557024 -1 0.8314696 0.48007804 -0.5032898 0.7184876 0.38333684 0.0504473
0.38268346 -1 0.9238795 0.3306835 -0.50328994 0.7983407 0.34184402 0.028268918
0.19509032 -1 0.98078525 0.16858104 -0.5032901 0.8475138 0.29682168 0.014611542
0 -1 1 0 -0.5032898 0.8641176 0.25 0.010000005
-0.19509032 -1 0.98078525 -0.1685811 -0.5032902 0.8475137 0.20317832 0.014611542
-0.38268346 -1 0.9238795 -0.3306835 -0.5032899 0.7983407 0.15815598 0.028268918
-0.55557024 -1 0.8314696 -0.48007846 -0.50328964 0.7184875 0.11666314 0.0504473
-0.70710677 -1 0.70710677 -0.6110235 -0.50328976 0.6110235 0.080294386 0.080294386
-0.8314696 -1 0.55557024 -0.71848714 -0.50329024 0.48007834 0.0504473 0.11666314
-0.9238795 -1 0.38268346 -0.7983407 -0.50328994 0.3306835 0.028268918 0.15815598
-0.98078525 -1 0.19509032 -0.84751374 -0.5032902 0.16858104 0.014611542 0.20317832
-1 -1 0 -0.8641177 -0.50328976 -0 0.010000005 0.25
-0.98078525 -1 -0.19509032 -0.8475137 -0.5032903 -0.16858105 0.014611542 0.29682168
-0.9238795 -1 -0.38268346 -0.7983407 -0.50328994 -0.3306835 0.028268918 0.34184402
-0.8314696 -1 -0.55557024 -0.7184878 -0.50328976 -0.48007795 0.0504473 0.38333684
-0.70710677 -1 -0.70710677 -0.6110235 -0.5032898 -0.6110235 0.080294386 0.41970563
-0.55557024 -1 -0.8314696 -0.48007804 -0.5032898 -0.7184876 0.11666314 0.4495527
-0.38268346 -1 -0.9238795 -0.3306835 -0.50328994 -0.7983407 0.15815598 0.47173107
0.19509032 -1 0.98078525 0.16858104 -0.5032901 0.8475138 0.79682165 0.014611542
-0.98078525 -1 0.19509032 -0.84751374 -0.5032902 0.16858104 0.51461154 0.20317832
-0.19509032 -1 -0.98078525 -0.16858104 -0.5032901 -0.8475138 0.70317835 0.48538846
-0.19509032 -1 -0.98078525 -0.16858104 -0.5032901 -0.8475138 0.20317832 0.48538846
0 -1 -1 0 -0.5032898 -0.8641176 0.75 0.49
0.19509032 -1 -0.98078525 0.1685811 -0.5032902 -0.8475137 0.79682165 0.48538846
0.38268346 -1 -0.9238795 0.3306835 -0.5032899 -0.7983407 0.841844 0.47173107
0.55557024 -1 -0.8314696 0.48007846 -0.50328964 -0.7184875 0.88333684 0.4495527
0.70710677 -1 -0.70710677 0.6110235 -0.50328976 -0.6110235 0.9197056 0.41970563
0.8314696 -1 -0.55557024 0.71848714 -0.50329024 -0.48007834 0.9495527 0.38333684
0.9238795 -1 -0.38268346 0.7983407 -0.50328994 -0.3306835 0.97173107 0.34184402
0.98078525 -1 -0.19509032 0.84751374 -0.5032902 -0.16858104 0.98538846 0.29682168
1 -1 0 0.8641177 -0.50328976 0 0.99 0.25
0.98078525 -1 0.19509032 0.8475137 -0.5032903 0.16858105 0.98538846 0.20317832
0.9238795 -1 0.38268346 0.7983407 -0.50328994 0.3306835 0.97173107 0.15815598
0.8314696 -1 0.55557024 0.7184878 -0.50328976 0.48007795 0.9495527 0.11666314
0.70710677 -1 0.70710677 0.6110235 -0.5032898 0.6110235 0.9197056 0.080294386
0.55557024 -1 0.8314696 0.48007804 -0.5032898 0.7184876 0.88333684 0.0504473
0.38268346 -1 0.9238795 0.3306835 -0.50328994 0.7983407 0.841844 0.028268918
0 -1 1 0 -0.5032898 0.8641176 0.75 0.010000005
-0.19509032 -1 0.98078525 -0.1685811 -0.5032902 0.8475137 0.70317835 0.014611542
-0.38268346 -1 0.9238795 -0.3306835 -0.5032899 0.7983407 0.658156 0.028268918
-0.55557024 -1 0.8314696 -0.48007846 -0.50328964 0.7184875 0.61666316 0.0504473
-0.70710677 -1 0.70710677 -0.6110235 -0.50328976 0.6110235 0.5802944 0.080294386
-0.8314696 -1 0.55557024 -0.71848714 -0.50329024 0.48007834 0.5504473 0.11666314
-0.9238795 -1 0.38268346 -0.7983407 -0.50328994 0.3306835 0.52826893 0.15815598
-1 -1 0 -0.8641177 -0.50328976 -0 0.51 0.25
-0.98078525 -1 -0.19509032 -0.8475137 -0.5032903 -0.16858105 0.51461154 0.29682168
-0.9238795 -1 -0.38268346 -0.7983407 -0.50328994 -0.3306835 0.52826893 0.34184402
-0.8314696 -1 -0.55557024 -0.7184878 -0.50328976 -0.48007795 0.5504473 0.38333684
-0.70710677 -1 -0.70710677 -0.6110235 -0.5032898 -0.6110235 0.5802944 0.41970563
-0.55557024 -1 -0.8314696 -0.48007804 -0.5032898 -0.7184876 0.61666316 0.4495527
-0.38268346 -1 -0.9238795 -0.3306835 -0.50328994 -0.7983407 0.658156 0.47173107
3 0 1 2
3 2 1 3
3 3 1 4
3 4 1 5
3 5 1 6
3 6 1 7
3 7 1 8
3 8 1 9
3 9 1 10
3 10 1 11
3 11 1 12
3 12 1 13
3 13 1 14
3 14 1 15
3 15 1 16
3 16 1 17
3 17 1 18
3 18 1 19
3 19 1 20
3 20 1 21
3 21 1 22
3 22 1 23
3 23 1 24
3 24 1 25
3 25 1 26
3 26 1 27
3 27 1 28
3 28 1 29
3 29 1 30
3 30 1 31
3 32 33 34
3 31 1 35
3 35 1 0
3 34 36 37
3 37 38 39
3 39 40 41
3 41 42 43
3 43 44 45
3 45 46 47
3 47 48 49
3 49 50 32
3 32 51 52
3 52 53 54
3 54 55 56
3 56 57 33
3 33 58 59
3 59 60 61
3 61 62 63
3 63 64 34
3 34 37 43
3 37 39 43
3 39 41 43
3 43 45 32
3 45 47 32
3 47 49 32
3 32 52 33
3 52 54 33
3 54 56 33
3 33 59 34
3 59 61 34
3 61 63 34
3 34 43 32
