ply
format ascii 1.0
comment Created in Blender version 4.0.2
element vertex 96
property float x
property float y
property float z
property float nx
property float ny
property float nz
property float s
property float t
element face 148
property list uchar uint vertex_indices
end_header
-1 0.3333333 1 -0.7071067 0 0.70710677 0.625 0.16666667
-1 1 0.3333333 -0.70710677 0.7071067 0 0.5416666 0.25
-1 0.3333333 0.3333333 -1 0 0 0.5416666 0.16666666
0.3333333 1 1 0 0.70710677 0.70710677 0.625 0.41666666
1 1 0.3333333 0.7071068 0.7071068 0 0.5416666 0.5
0.3333333 1 0.3333333 0.22411507 0.94844335 0.22411507 0.5416666 0.41666666
1 -0.3333333 1 0.7071068 0 0.7071068 0.625 0.6666666
1 -1 0.3333333 0.70710677 -0.7071067 0 0.5416666 0.75
1 -0.3333333 0.3333333 0.96708924 -0.17991439 0.17991439 0.5416666 0.6666666
-0.3333333 -1 1 0 -0.70710677 0.7071067 0.625 0.9166666
-1 -1 0.3333333 -0.7071068 -0.7071068 0 0.5416666 1
-0.3333333 -1 0.3333333 0 -1 0 0.5416666 0.9166666
1 -0.3333333 -1 0.7071067 0 -0.70710677 0.375 0.6666666
0.3333333 -1 -1 0 -0.70710677 -0.7071067 0.29166666 0.75
0.3333333 -0.3333333 -1 0 0 -1 0.29166666 0.6666666
-1 -0.3333333 1 -0.7071067 0 0.70710677 0.875 0.6666666
-0.3333333 -1 1 0 -0.70710677 0.7071067 0.7916666 0.75
-0.3333333 -0.3333333 1 -0.19962141 -0.19962145 0.959324 0.7916666 0.6666666
-1 1 1 -0.5773503 0.5773503 0.5773503 0.875 0.5
-0.3333333 0.3333333 1 -0.19962141 0.19962141 0.959324 0.7916666 0.5833333
-0.3333333 1 1 0 0.70710677 0.7071067 0.7916666 0.5
-1 0.3333333 1 -0.7071067 0 0.70710677 0.875 0.5833333
1 1 -1 0.5773503 0.5773503 -0.5773503 0.375 0.5
0.3333333 0.3333333 -1 0 0 -1 0.29166666 0.5833333
0.3333333 1 -1 0 0.7071068 -0.7071068 0.29166666 0.5
1 0.3333333 -1 0.70710677 0 -0.70710677 0.375 0.5833333
1 1 1 0.5773503 0.5773503 0.5773503 0.625 0.5
1 0.3333333 0.3333333 0.96708924 0.17991437 0.17991437 0.5416666 0.5833333
1 0.3333333 1 0.7071067 0 0.70710677 0.625 0.5833333
-1 -1 1 -0.5773503 -0.5773503 0.5773503 0.625 0
-1 -0.3333333 0.3333333 -1 0 0 0.5416666 0.08333333
-1 -1 0.3333333 -0.7071068 -0.7071068 0 0.5416666 0
-1 -0.3333333 1 -0.7071067 0 0.70710677 0.625 0.083333336
-1 -0.3333333 -0.3333333 -1 0 0 0.4583333 0.08333333
-1 0.3333333 -1 -0.7071067 0 -0.70710677 0.375 0.16666666
-1 -0.3333333 -1 -0.70710677 0 -0.7071067 0.375 0.08333333
-1 0.3333333 -0.3333333 -1 0 0 0.4583333 0.16666666
-1 -1 -0.3333333 -0.70710677 -0.7071067 0 0.4583333 0
-1 -1 -1 -0.5773503 -0.5773503 -0.5773503 0.375 0
1 0.3333333 -0.3333333 0.96708924 0.17991437 -0.17991437 0.4583333 0.5833333
0.14806412 0.14806412 1.5 0.6989157 0.6989158 0.15176736 0.7083333 0.5833333
0.23068193 -0.23068193 2 0.6155839 -0.61558396 0.49204946 0.7083333 0.6666666
0.14806412 -0.14806412 1.5 0.69891584 -0.6989158 0.15176737 0.7083333 0.6666666
1 1 -0.3333333 0.70710677 0.7071067 0 0.4583333 0.5
-0.3333333 -1 -0.3333333 0 -1 0 0.4583333 0.9166666
-1 -1 -1 -0.5773503 -0.5773503 -0.5773503 0.375 1
-0.3333333 -1 -1 0 -0.7071068 -0.7071068 0.375 0.9166666
-1 -1 -0.3333333 -0.70710677 -0.7071067 0 0.4583333 1
1 -0.3333333 -0.3333333 0.96708924 -0.17991439 -0.17991439 0.4583333 0.6666666
1 -1 -1 0.5773503 -0.5773503 -0.5773503 0.375 0.75
1 -1 -0.3333333 0.70710677 -0.70710677 0 0.4583333 0.75
0.3333333 1 -0.3333333 0.22411507 0.94844335 -0.22411507 0.4583333 0.41666666
0.3333333 1 -1 0 0.7071068 -0.7071068 0.375 0.41666666
-1 1 -1 -0.5773503 0.5773503 -0.5773503 0.375 0.25
-1 1 -0.3333333 -0.70710677 0.70710677 0 0.4583333 0.25
-0.3333333 1 -0.3333333 -0.22411509 0.94844335 -0.22411509 0.4583333 0.3333333
1.5 0.099999994 -0.099999994 0.3727033 0.6561601 -0.6561602 0.46856213 0.5935621
2 -0.06666666 -0.06666666 0.6121795 -0.55912256 -0.5591226 0.4583333 0.6666666
1.5 -0.099999994 -0.099999994 0.3727033 -0.6561602 -0.65616006 0.46856213 0.6564378
-0.3333333 1 -1 0 0.70710677 -0.70710677 0.375 0.3333333
0.3333333 -1 -0.3333333 0 -1 0 0.4583333 0.8333333
0.3333333 -1 0.3333333 0 -1 0 0.5416666 0.8333333
0.3333333 -1 -1 0 -0.70710677 -0.7071067 0.375 0.8333333
-0.3333333 0.3333333 -1 0 0 -1 0.20833333 0.5833333
-1 -0.3333333 -1 -0.70710677 0 -0.7071067 0.125 0.6666666
-1 0.3333333 -1 -0.7071067 0 -0.70710677 0.125 0.5833333
-0.3333333 -0.3333333 -1 0 0 -1 0.20833333 0.6666666
-0.3333333 1 -1 0 0.70710677 -0.70710677 0.20833333 0.5
-1 1 -1 -0.5773503 0.5773503 -0.5773503 0.125 0.5
0.3333333 0.3333333 1 0.19962141 0.19962145 0.959324 0.7083333 0.5833333
0.06666666 2 0.06666666 0.4980773 0.7098155 0.49807727 0.5416666 0.41666666
0.3333333 1 1 0 0.70710677 0.70710677 0.7083333 0.5
0.3333333 -0.3333333 1 0.19962142 -0.19962142 0.959324 0.7083333 0.6666666
1 -1 1 0.5773503 -0.5773503 0.5773503 0.625 0.75
0.3333333 -1 1 0 -0.70710677 0.7071067 0.7083333 0.75
-1 -1 -1 -0.5773503 -0.5773503 -0.5773503 0.125 0.75
-0.3333333 -1 -1 0 -0.7071068 -0.7071068 0.20833333 0.75
0.3333333 -1 1 0 -0.70710677 0.7071067 0.625 0.8333333
-1 1 1 -0.5773503 0.5773503 0.5773503 0.625 0.25
-0.3333333 1 0.3333333 -0.22411507 0.94844335 0.22411507 0.5416666 0.3333333
-0.3333333 1 1 0 0.70710677 0.7071067 0.625 0.3333333
2 0.06666666 0.06666666 0.6121796 0.55912256 0.5591226 0.5416666 0.5833333
2 0.06666666 -0.06666666 0.61217964 0.5591226 -0.55912256 0.4583333 0.5833333
-0.06666666 2 0.06666666 -0.49807727 0.7098155 0.4980773 0.5416666 0.3333333
0.06666666 2 -0.06666666 0.49807727 0.7098155 -0.4980773 0.4583333 0.41666666
-0.06666666 2 -0.06666666 -0.4980773 0.7098155 -0.49807727 0.4583333 0.3333333
-0.23068193 0.23068193 2 -0.6155839 0.61558396 0.49204946 0.7916666 0.5833333
0.23068193 0.23068193 2 0.61558396 0.6155839 0.49204946 0.7083333 0.5833333
-0.14806412 0.14806412 1.5 -0.6989159 0.69891584 0.15176737 0.7916666 0.5833333
1.5 -0.099999994 0.099999994 0.3727033 -0.6561601 0.6561602 0.53143775 0.6564378
1.5 0.099999994 0.099999994 0.3727033 0.6561602 0.65616006 0.5314378 0.5935621
2 -0.06666666 0.06666666 0.61217964 -0.5591226 0.55912256 0.5416666 0.6666666
-0.14806412 -0.14806412 1.5 -0.6989157 -0.6989158 0.15176736 0.7916666 0.6666666
-0.23068193 -0.23068193 2 -0.61558396 -0.6155839 0.49204946 0.7916666 0.6666666
-1 -1 1 -0.5773503 -0.5773503 0.5773503 0.625 1
-1 -1 1 -0.5773503 -0.5773503 0.5773503 0.875 0.75
3 0 1 2
3 3 4 5
3 6 7 8
3 9 10 11
3 12 13 14
3 15 16 17
3 18 19 20
3 21 17 19
3 22 23 24
3 25 14 23
3 26 27 4
3 28 8 27
3 29 30 31
3 32 2 30
3 33 34 35
3 30 36 33
3 37 35 38
3 31 33 37
3 39 12 25
3 40 41 42
3 43 25 22
3 4 39 43
3 44 45 46
3 11 47 44
3 48 49 12
3 8 50 48
3 51 22 52
3 5 43 51
3 36 53 34
3 2 54 36
3 1 55 54
3 56 57 58
3 54 59 53
3 55 52 59
3 7 60 50
3 61 44 60
3 50 62 49
3 60 46 62
3 63 64 65
3 23 66 63
3 67 65 68
3 24 63 67
3 69 6 28
3 51 70 5
3 71 28 26
3 20 69 71
3 72 73 6
3 17 74 72
3 66 75 64
3 14 76 66
3 73 61 7
3 77 11 61
3 78 79 1
3 80 5 79
3 81 57 82
3 83 84 85
3 86 41 87
3 88 87 40
3 5 83 79
3 89 81 90
3 58 91 89
3 92 86 88
3 79 85 55
3 55 84 51
3 90 82 56
3 42 93 92
3 27 56 39
3 48 89 8
3 8 90 27
3 39 58 48
3 72 92 17
3 17 88 19
3 19 40 69
3 69 42 72
3 0 78 1
3 3 26 4
3 6 73 7
3 9 94 10
3 12 49 13
3 15 95 16
3 18 21 19
3 21 15 17
3 22 25 23
3 25 12 14
3 26 28 27
3 28 6 8
3 29 32 30
3 32 0 2
3 33 36 34
3 30 2 36
3 37 33 35
3 31 30 33
3 39 48 12
3 40 87 41
3 43 39 25
3 4 27 39
3 44 47 45
3 11 10 47
3 48 50 49
3 8 7 50
3 51 43 22
3 5 4 43
3 36 54 53
3 2 1 54
3 1 79 55
3 56 82 57
3 54 55 59
3 55 51 52
3 7 61 60
3 61 11 44
3 50 60 62
3 60 44 46
3 63 66 64
3 23 14 66
3 67 63 65
3 24 23 63
3 69 72 6
3 51 84 70
3 71 69 28
3 20 19 69
3 72 74 73
3 17 16 74
3 66 76 75
3 14 13 76
3 73 77 61
3 77 9 11
3 78 80 79
3 80 3 5
3 81 91 57
3 83 70 84
3 86 93 41
3 88 86 87
3 5 70 83
3 89 91 81
3 58 57 91
3 92 93 86
3 79 83 85
3 55 85 84
3 90 81 82
3 42 41 93
3 27 90 56
3 48 58 89
3 8 89 90
3 39 56 58
3 72 42 92
3 17 92 88
3 19 88 40
3 69 40 42
