ply
format ascii 1.0
comment Created in Blender version 4.0.2
element vertex 16
property float x
property float y
property float z
property float nx
property float ny
property float nz
property float s
property float t
element face 14
property list uchar uint vertex_indices
end_header
-0.70710677 -3.090862e-08 0.70710677 2.7223277e-15 -1 -4.37114e-08 0 0
-0.70710677 3.090862e-08 -0.70710677 -2.1778613e-15 -1 -4.37114e-08 0 0
0.70710677 3.090862e-08 -0.70710677 2.7223277e-15 -1 -4.37114e-08 0 0
0.9238795 1.6727626e-08 -0.38268346 7.622545e-15 -1 -4.3711477e-08 0 0
1 0 0 5.444665e-16 -0.99999994 -4.3711385e-08 0 0
0.9238795 -1.6727626e-08 0.38268346 0 -1 -4.371147e-08 0 0
0.70710677 -3.090862e-08 0.70710677 -2.1778613e-15 -1 -4.37114e-08 0 0
0.38268346 -4.0384055e-08 0.9238795 -3.049012e-14 -1 -4.3711463e-08 0 0
0 -4.371139e-08 1 0 -0.99999994 -4.3711385e-08 0 0
-0.38268346 -4.0384055e-08 0.9238795 3.049012e-14 -1 -4.3711463e-08 0 0
-0.9238795 -1.6727626e-08 0.38268346 7.622545e-15 -1 -4.3711477e-08 0 0
-1 0 0 5.444665e-16 -0.99999994 -4.3711385e-08 0 0
-0.9238795 1.6727626e-08 -0.38268346 0 -1 -4.371147e-08 0 0
-0.38268346 4.0384055e-08 -0.9238795 -3.049012e-14 -1 -4.3711463e-08 0 0
0 4.371139e-08 -1 0 -0.99999994 -4.3711385e-08 0 0
0.38268346 4.0384055e-08 -0.9238795 3.049012e-14 -1 -4.3711463e-08 0 0
3 0 1 2
3 2 3 4
3 4 5 6
3 6 7 8
3 8 9 0
3 0 10 11
3 11 12 1
3 1 13 14
3 14 15 2
3 2 4 6
3 6 8 0
3 0 11 1
3 1 14 2
3 2 6 0
