ply
format ascii 1.0
comment A cube
element vertex 24
property float x
property float y
property float z
property float texture_u
property float texture_v
property float nx
property float ny
property float nz
element face 12
property list uchar uint vertex_indices
end_header
-0.5 0.5 0.5 0.0 1.0 0.0 0.0 1.0
-0.5 -0.5 0.5 0.0 0.0 0.0 0.0 1.0
0.5 -0.5 0.5 1.0 0.0 0.0 0.0 1.0
0.5 0.5 0.5 1.0 1.0 0.0 0.0 1.0
0.5 0.5 -0.5 0.0 1.0 0.0 0.0 -1.0
0.5 -0.5 -0.5 0.0 0.0 0.0 0.0 -1.0
-0.5 -0.5 -0.5 1.0 0.0 0.0 0.0 -1.0
-0.5 0.5 -0.5 1.0 1.0 0.0 0.0 -1.0
0.5 0.5 0.5 0.0 1.0 1.0 0.0 0.0
0.5 -0.5 0.5 0.0 0.0 1.0 0.0 0.0
0.5 -0.5 -0.5 1.0 0.0 1.0 0.0 0.0
0.5 0.5 -0.5 1.0 1.0 1.0 0.0 0.0
-0.5 0.5 -0.5 0.0 1.0 -1.0 0.0 0.0
-0.5 -0.5 -0.5 0.0 0.0 -1.0 0.0 0.0
-0.5 -0.5 0.5 1.0 0.0 -1.0 0.0 0.0
-0.5 0.5 0.5 1.0 1.0 -1.0 0.0 0.0
-0.5 0.5 -0.5 0.0 1.0 0.0 1.0 0.0
-0.5 0.5 0.5 0.0 0.0 0.0 1.0 0.0
0.5 0.5 0.5 1.0 0.0 0.0 1.0 0.0
0.5 0.5 -0.5 1.0 1.0 0.0 1.0 0.0
-0.5 -0.5 0.5 0.0 1.0 0.0 -1.0 0.0
-0.5 -0.5 -0.5 0.0 0.0 0.0 -1.0 0.0
0.5 -0.5 -0.5 1.0 0.0 0.0 -1.0 0.0
0.5 -0.5 0.5 1.0 1.0 0.0 -1.0 0.0
3 0 1 2
3 2 3 0
3 4 5 6
3 6 7 4
3 8 9 10
3 10 11 8
3 12 13 14
3 14 15 12
3 16 17 18
3 18 19 16
3 20 21 22
3 22 23 20
