ply
format ascii 1.0
comment A colored cube with shader and texture references.
comment VertexShaderFile cube-vertex.glsl
comment FragmentShaderFile cube-fragment.glsl
element vertex 8
property float x
property float y
property float z
property float r
property float g
property float b
element face 12
property list uchar uchar vertex_index
end_header
-1 -1 -1 0 0 0
1 -1 -1 1 0 0
-1 1 -1 0 1 0
1 1 -1 1 1 0
-1 -1 1 0 0 1
1 -1 1 1 0 1
-1 1 1 0 1 1
1 1 1 1 1 1
3 0 2 1
3 1 2 3
3 4 5 6
3 5 7 6
3 0 6 2
3 0 4 6
3 1 3 7
3 1 7 5
3 2 6 3
3 3 6 7
3 0 1 4
3 1 5 4