ply
format ascii 1.0
obj_info texture plant-dirt.jpg
element material 1
property uchar diffuse_red
property uchar diffuse_green
property uchar diffuse_blue
property uint diffuse_texture
property uint face_offset
property uint face_count
element vertex 365
property float x
property float y
property float z
property float nx
property float ny
property float nz
property float s
property float t
element face 664
property list uchar uint vertex_indices
end_header
255
255
255
0
0
664
0.867906 0.096431 0.705939 0.146428 -0.063814 0.987152 0.596500 0.756000 
0.904700 0.018536 0.702583 0.070589 0.073275 0.994781 0.607700 0.763300 
0.979532 0.142094 0.698765 0.011963 -0.101688 0.994720 0.607300 0.740600 
0.830045 0.172664 0.721666 0.123112 -0.134678 0.983184 0.585400 0.749100 
0.763377 0.110561 0.728228 0.142491 -0.032075 0.989257 0.581800 0.762900 
0.844975 -0.040534 0.715617 0.094974 0.072024 0.992859 0.604800 0.776200 
0.804600 0.034972 0.720839 0.156529 0.015442 0.987548 0.593400 0.769500 
0.772658 -0.103981 0.726233 0.041749 0.036561 0.998444 0.600600 0.790700 
0.814966 -0.179555 0.731973 0.018860 0.150243 0.988464 0.612300 0.797200 
0.821987 -0.523939 0.734805 0.216285 -0.134007 0.967071 0.641400 0.842400 
0.885624 -0.401133 0.743227 0.199347 -0.081210 0.976531 0.639600 0.820700 
0.791541 -0.435903 0.760421 0.199591 -0.121769 0.972259 0.630300 0.833300 
0.681287 -0.411509 0.778713 0.046358 -0.038545 0.998169 0.614000 0.839300 
0.768400 -0.344410 0.773260 0.081027 0.067232 0.994415 0.619800 0.823100 
0.717678 -0.495370 0.764911 0.143712 -0.130863 0.980895 0.625600 0.847400 
0.757484 -0.580356 0.745433 0.196814 -0.077486 0.977355 0.637700 0.855400 
0.736083 -0.718387 0.743176 0.185247 -0.076632 0.979675 0.646200 0.875500 
0.690247 -0.636832 0.754684 0.118778 -0.058138 0.991211 0.633600 0.868600 
0.670186 0.680609 0.759171 -0.168187 -0.073611 0.982971 0.523000 0.694900 
0.744010 0.607466 0.773734 -0.155004 -0.026185 0.987548 0.538600 0.698400 
0.786371 0.688671 0.775847 0.053041 0.015442 0.998444 0.537400 0.684100 
0.825606 0.522532 0.778827 -0.039369 -0.041993 0.998321 0.556100 0.702900 
0.699792 0.525864 0.757680 -0.181982 -0.049501 0.982025 0.539500 0.713000 
0.058307 -0.716339 0.768288 -0.121982 -0.256081 0.958922 0.558200 0.932300 
0.168231 -0.704244 0.787202 -0.063967 -0.273049 0.959868 0.571500 0.921400 
0.121269 -0.632941 0.803807 -0.082308 -0.147465 0.985626 0.559500 0.915900 
0.220790 -0.781288 0.765755 -0.041810 -0.215247 0.975646 0.584600 0.927300 
0.259818 -0.666690 0.798498 0.016022 -0.152806 0.988098 0.580200 0.908700 
0.368412 0.391353 0.737468 -0.011658 -0.088778 0.995972 0.507600 0.758800 
0.286054 0.332088 0.723970 -0.051454 -0.166509 0.984680 0.501800 0.773600 
0.443230 0.328221 0.735002 -0.068300 -0.078951 0.994507 0.522500 0.760900 
0.452351 0.453738 0.739279 0.028443 0.006623 0.999573 0.513400 0.743400 
0.395893 0.531369 0.743994 0.113651 -0.084567 0.989898 0.499700 0.737900 
0.022723 -0.473298 0.784794 -0.070345 0.119816 0.990295 0.533700 0.903000 
0.084877 -0.542356 0.800255 -0.095920 0.081027 0.992065 0.547400 0.906900 
0.143371 -0.395507 0.769603 -0.007294 0.148503 0.988861 0.542900 0.882400 
-0.040544 -0.400575 0.770011 -0.089145 0.078005 0.992950 0.519500 0.898600 
-0.015147 -0.535399 0.784154 -0.169958 0.013031 0.985351 0.533800 0.914400 
1.121262 -1.009838 0.747757 -0.118778 -0.109073 0.986877 0.720100 0.881900 
1.052538 -1.031887 0.731331 -0.224464 -0.103641 0.968932 0.713000 0.890600 
1.064309 -1.106948 0.725468 -0.206610 -0.032350 0.977874 0.720600 0.899600 
1.039419 -0.958964 0.735545 -0.233497 -0.101718 0.967009 0.705300 0.882000 
0.930863 -1.068236 0.695946 -0.167241 -0.026124 0.985565 0.700200 0.905700 
0.958607 -0.909628 0.715651 -0.236579 -0.071627 0.968963 0.690800 0.882300 
1.172514 -0.923354 0.765373 -0.100223 -0.119602 0.987732 0.719600 0.866100 
0.660037 -0.084110 0.727171 -0.069918 -0.003815 0.997528 0.584400 0.797500 
0.552409 -0.059319 0.712116 -0.095370 0.038575 0.994690 0.568400 0.803300 
0.601594 -0.132447 0.721012 -0.053041 0.101505 0.993408 0.580800 0.808900 
0.539334 -0.191883 0.729270 0.034974 0.200629 0.979034 0.577600 0.822000 
0.660063 -0.206004 0.736057 -0.036500 0.213080 0.976318 0.594400 0.813800 
0.642844 -0.341649 0.773070 -0.034577 0.170690 0.984710 0.603300 0.833300 
0.726471 -0.275066 0.758365 -0.015198 0.254921 0.966826 0.608700 0.817400 
0.591915 -0.269619 0.749718 -0.026032 0.249672 0.967956 0.590800 0.828000 
0.471189 -0.256053 0.748693 0.054476 0.181219 0.981903 0.574000 0.836300 
0.836088 -0.287558 0.760219 0.167516 0.125431 0.977844 0.623900 0.809800 
0.772864 -0.223105 0.743086 0.018983 0.245582 0.969176 0.610400 0.806500 
0.707621 -0.156312 0.730446 -0.021485 0.108005 0.993896 0.596500 0.803100 
0.536023 0.043801 0.710542 -0.136814 -0.054781 0.989074 0.557800 0.790900 
0.617765 -0.009239 0.723847 -0.123295 -0.035646 0.991699 0.572800 0.791100 
0.614339 0.103256 0.729126 -0.105686 -0.064119 0.992309 0.563100 0.776400 
0.632602 0.236990 0.739743 -0.044557 -0.079318 0.995849 0.554500 0.757100 
0.694310 0.167621 0.736200 0.027039 -0.065004 0.997497 0.568200 0.761200 
0.442217 0.091065 0.703499 -0.077212 -0.063478 0.994964 0.541800 0.792600 
0.465730 -0.008304 0.703581 0.002075 0.082766 0.996551 0.553000 0.803800 
0.399270 -0.063861 0.722045 0.126804 0.199316 0.971679 0.548900 0.816800 
0.491340 -0.112370 0.718012 0.063478 0.161992 0.984741 0.564800 0.815500 
0.690807 0.048624 0.733474 0.012452 -0.029115 0.999481 0.577500 0.777300 
0.457278 -0.437444 0.775477 0.048616 0.082095 0.995422 0.587100 0.861600 
0.513553 -0.336911 0.763434 -0.022065 0.167089 0.985687 0.586100 0.843500 
0.414976 -0.357621 0.767546 0.043580 0.140110 0.989166 0.575000 0.854600 
0.370200 -0.270540 0.759325 0.059114 0.136906 0.988800 0.562100 0.846700 
0.309752 -0.366749 0.773074 0.007752 0.137364 0.990478 0.562100 0.864600 
0.402465 -0.530183 0.787621 0.132542 0.052400 0.989776 0.587600 0.878600 
0.501122 -0.509036 0.773210 0.070223 -0.005097 0.997497 0.598600 0.867500 
0.553150 -0.588145 0.767835 0.086154 -0.044374 0.995270 0.611800 0.873600 
0.595016 -0.478204 0.773927 0.025544 -0.066683 0.997436 0.608300 0.855500 
0.554131 -0.408918 0.774933 -0.025575 0.041780 0.998779 0.597300 0.849700 
0.427830 -0.172919 0.739919 0.105228 0.171453 0.979522 0.561600 0.828900 
0.939947 0.865569 0.731833 0.196814 0.056917 0.978759 0.542800 0.647600 
0.846475 0.872342 0.762598 0.249733 0.035401 0.967650 0.530200 0.654600 
0.870166 0.783292 0.758424 0.246437 0.028199 0.968719 0.540500 0.664400 
0.475620 -1.101744 0.723530 0.016480 0.121372 0.992462 0.643900 0.948500 
0.570506 -0.964074 0.716539 0.046297 -0.048891 0.997711 0.644900 0.922200 
0.456398 -1.011559 0.720292 0.060732 -0.023438 0.997864 0.634000 0.938100 
0.436992 -0.921042 0.730198 0.080844 -0.154973 0.984588 0.624100 0.927700 
0.356561 -1.052469 0.727229 0.093600 0.014618 0.995483 0.624400 0.951900 
0.642222 -1.257466 0.758566 0.032533 0.206915 0.977813 0.678300 0.955200 
0.589517 -1.329429 0.767249 -0.071902 0.148015 0.986358 0.677300 0.969200 
0.690394 -1.363401 0.777651 0.048433 0.217658 0.974792 0.693200 0.965200 
0.696759 0.286980 0.743668 -0.034181 -0.071444 0.996826 0.558700 0.745100 
0.570735 0.306503 0.742538 -0.044710 -0.030793 0.998505 0.540800 0.753100 
0.493223 0.247062 0.733792 -0.089877 -0.108982 0.989959 0.535600 0.767500 
0.417192 0.190997 0.715269 -0.113865 -0.125706 0.985504 0.530300 0.781400 
0.524957 0.151541 0.722421 -0.112980 -0.124546 0.985748 0.547600 0.777500 
0.368122 0.037378 0.702800 0.056856 0.152135 0.986694 0.536600 0.805900 
0.336310 -0.606939 0.800526 0.105258 -0.034852 0.993805 0.585300 0.894400 
0.293271 -0.539731 0.803043 0.053957 0.074068 0.995788 0.574200 0.889000 
0.385265 -0.680335 0.787302 0.098453 -0.138157 0.985473 0.597600 0.900000 
0.469052 -0.634132 0.778665 0.139561 -0.015687 0.990081 0.604700 0.886800 
0.356578 -0.453736 0.785449 0.062075 0.137303 0.988556 0.575300 0.872300 
0.247647 -0.459306 0.788794 -0.015778 0.178747 0.983764 0.561700 0.882200 
0.514369 -0.698698 0.770951 0.109897 -0.113620 0.987396 0.615900 0.891600 
1.074213 0.762410 0.737187 -0.107944 -0.012909 0.994049 0.568700 0.650000 
1.112450 0.668821 0.740093 -0.064394 -0.008484 0.997864 0.581300 0.659300 
1.177790 0.727005 0.752298 -0.059053 -0.073763 0.995514 0.585000 0.646000 
1.037513 0.855168 0.730604 -0.073672 0.027131 0.996887 0.556300 0.640800 
0.963642 0.775402 0.734542 0.115909 0.045473 0.992187 0.553300 0.657600 
1.243995 0.785261 0.757145 0.002991 -0.086276 0.996246 0.588800 0.632700 
1.138184 0.820872 0.752652 -0.146916 -0.039399 0.988342 0.572200 0.636900 
1.215136 0.622494 0.744491 -0.008881 -0.055971 0.998383 0.598400 0.656800 
0.845294 -1.300522 0.742835 0.121342 0.309122 0.943236 0.708100 0.943800 
0.809406 -1.221317 0.718502 0.161077 0.254738 0.953490 0.697000 0.936300 
0.750746 -1.293227 0.753530 0.133610 0.273873 0.952422 0.695300 0.950800 
0.881913 -1.379813 0.761825 0.119358 0.283029 0.951628 0.719400 0.951300 
0.982255 -1.361354 0.745193 0.019593 0.257027 0.966186 0.730900 0.940400 
0.788154 -1.373492 0.772918 0.111789 0.281472 0.953001 0.706700 0.958400 
0.704471 -1.188326 0.733739 0.143406 0.200354 0.969146 0.680700 0.940700 
0.153919 -0.103682 0.747913 0.064516 0.135716 0.988617 0.520400 0.842700 
0.033393 -0.081071 0.753271 0.006043 0.121769 0.992523 0.502900 0.849900 
0.071873 -0.147189 0.758825 0.034944 0.070650 0.996887 0.513300 0.855400 
-0.005706 -0.015699 0.743986 0.069887 0.088961 0.993561 0.492500 0.844400 
-0.056089 -0.113193 0.749524 -0.052644 0.049837 0.997345 0.493900 0.861700 
-0.010770 -0.191113 0.759880 -0.064882 0.050752 0.996582 0.506200 0.868200 
-0.102252 -0.035931 0.749609 0.041658 -0.056368 0.997528 0.481600 0.855300 
-0.118648 -0.151396 0.744986 -0.076815 0.013306 0.996948 0.488900 0.872000 
0.100866 0.001894 0.733488 0.083804 0.185308 0.979095 0.504800 0.833100 
0.096923 -0.230862 0.761402 0.035279 0.055879 0.997803 0.523400 0.864400 
-0.194480 0.059219 0.770133 0.111698 -0.083895 0.990173 0.461800 0.850400 
-0.088039 0.076541 0.753847 0.181433 0.023041 0.983123 0.474200 0.839100 
-0.219914 -0.052693 0.748948 -0.018799 -0.117130 0.992920 0.467700 0.867400 
-0.055511 0.177966 0.738842 0.248360 0.089816 0.964476 0.470100 0.822900 
0.059385 0.186282 0.705321 0.136296 0.027223 0.990265 0.484300 0.812100 
-0.012229 0.254789 0.718521 0.208472 0.051393 0.976653 0.469400 0.809000 
-0.089220 0.348806 0.729247 0.157170 -0.008515 0.987518 0.451800 0.803000 
0.030980 0.326045 0.714563 0.058016 -0.089694 0.994263 0.469200 0.795900 
0.027909 0.088715 0.724195 0.177709 0.131565 0.975219 0.488300 0.827700 
-0.170976 0.167317 0.766784 0.202399 0.053285 0.977844 0.456000 0.834000 
-0.129338 0.261775 0.748147 0.241920 0.099796 0.965117 0.453700 0.817900 
1.873490 -0.450351 0.755930 0.121342 0.004334 0.992584 0.771700 0.744200 
1.927438 -0.559465 0.748674 0.138157 0.002167 0.990387 0.787700 0.754200 
1.951854 -0.449159 0.744700 0.150273 0.005982 0.988617 0.781800 0.737400 
0.150699 0.466585 0.745243 -0.053987 -0.241493 0.968871 0.473200 0.767100 
0.127237 0.568093 0.771332 -0.040651 -0.234809 0.971160 0.461800 0.755600 
0.039666 0.500498 0.744778 -0.052309 -0.218970 0.974303 0.456000 0.771900 
-0.063482 -0.886321 0.745674 -0.026521 0.071383 0.997070 0.556300 0.965200 
-0.003127 -0.800932 0.743891 -0.048036 -0.072146 0.996216 0.557200 0.948700 
-0.114657 -0.802543 0.740872 -0.061922 -0.054628 0.996582 0.542800 0.958300 
-0.160859 -0.721001 0.739687 -0.145543 -0.105960 0.983642 0.530200 0.951400 
-0.087805 -0.629521 0.762999 -0.182562 -0.109012 0.977111 0.532100 0.933000 
-0.187710 -0.623216 0.746019 -0.148778 -0.111576 0.982543 0.518700 0.940600 
0.339435 0.609014 0.764443 0.182897 -0.111515 0.976775 0.486000 0.732300 
0.239906 0.536124 0.766271 0.052950 -0.198157 0.978729 0.479100 0.750300 
0.461352 0.580303 0.732737 0.108676 -0.051851 0.992706 0.504200 0.725800 
0.217426 0.639065 0.785154 0.088229 -0.145116 0.985443 0.467700 0.738500 
0.321090 0.695592 0.775936 0.198950 -0.087008 0.976104 0.476500 0.722300 
0.262687 0.433711 0.742223 -0.007630 -0.180975 0.983428 0.490400 0.762100 
0.183842 -0.897470 0.746192 0.000427 -0.032136 0.999481 0.589300 0.945800 
0.139952 -0.835837 0.747301 -0.062349 -0.141118 0.988006 0.578600 0.941300 
0.059178 -0.890356 0.749227 0.006470 0.062044 0.998047 0.572600 0.955400 
0.087951 -1.043303 0.755358 0.058046 -0.013672 0.998199 0.588800 0.973300 
0.135845 -0.970370 0.752145 0.054811 0.037477 0.997772 0.589100 0.959600 
0.010533 -0.962781 0.757776 0.023774 0.077212 0.996704 0.572200 0.969100 
-0.051513 -0.719304 0.754462 -0.123478 -0.165960 0.978362 0.544200 0.941900 
-0.027806 0.422373 0.730633 0.033021 -0.148320 0.988372 0.453700 0.788000 
1.363269 -0.805123 0.765605 0.017457 -0.036103 0.999176 0.734700 0.834300 
1.323729 -0.953728 0.750810 0.061678 -0.107791 0.992248 0.741700 0.857400 
1.438151 -0.877259 0.757759 -0.026887 -0.124363 0.991852 0.750300 0.837600 
1.592371 -0.884732 0.766058 -0.022370 -0.064486 0.997650 0.770900 0.825600 
1.506258 -0.960114 0.751460 -0.106418 -0.033906 0.993713 0.765900 0.842900 
1.430499 -0.724116 0.763229 -0.039552 0.085574 0.995544 0.736700 0.817900 
1.495862 -0.782443 0.771652 -0.062166 -0.018220 0.997894 0.750000 0.820100 
1.323336 -0.681228 0.752039 -0.046937 0.186316 0.981353 0.719300 0.821200 
1.492193 -0.649482 0.762899 -0.128147 0.076998 0.988739 0.738600 0.802800 
1.173328 -0.716367 0.760632 -0.071627 0.213843 0.974212 0.702800 0.838500 
1.027454 -0.750529 0.740589 -0.211859 0.088290 0.973296 0.686700 0.855300 
1.124869 -0.795150 0.769323 -0.121006 0.069582 0.990204 0.702900 0.853100 
1.223987 -0.839077 0.775058 0.004730 -0.053468 0.998535 0.719400 0.850600 
1.076499 -0.876797 0.755893 -0.216437 -0.068606 0.973876 0.703400 0.868000 
1.274684 -0.758094 0.767733 0.006867 0.114872 0.993347 0.719300 0.835500 
0.852861 -0.936791 0.694720 -0.015931 -0.102115 0.994629 0.679300 0.894800 
1.222283 -0.980292 0.756688 0.027619 -0.148991 0.988433 0.730700 0.869500 
1.015450 -0.006071 0.709036 -0.040529 0.116153 0.992401 0.624100 0.757200 
0.731770 -0.027659 0.731195 0.041261 -0.013855 0.999023 0.589100 0.784000 
0.917148 -0.544231 0.714915 0.071291 -0.077517 0.994415 0.655400 0.837100 
0.641450 -0.556162 0.765172 0.095706 -0.087222 0.991577 0.620700 0.861900 
1.278116 0.266248 0.744078 -0.082980 -0.054140 0.995056 0.635800 0.698900 
1.190902 0.156941 0.718886 -0.103641 -0.093844 0.990173 0.633500 0.720800 
1.297674 0.180754 0.738034 -0.054079 -0.149449 0.987274 0.645400 0.708600 
1.420780 0.126487 0.725131 0.110630 -0.166784 0.979736 0.665800 0.705500 
1.316007 0.098220 0.724257 -0.009552 -0.119999 0.992706 0.654500 0.718100 
1.343726 0.476074 0.738964 0.018403 -0.003388 0.999817 0.627100 0.665500 
1.268580 0.350046 0.743107 -0.045381 0.024018 0.998657 0.627700 0.688600 
1.366214 0.376951 0.741740 0.106113 0.042848 0.993408 0.638200 0.676800 
1.171803 0.324764 0.732352 -0.070589 -0.054079 0.996033 0.617200 0.700100 
1.385330 0.290461 0.747030 0.071169 0.023377 0.997162 0.647700 0.686700 
1.069125 0.385322 0.737180 0.099094 -0.089328 0.991028 0.598900 0.700600 
1.065303 0.223092 0.718015 -0.014924 -0.133946 0.990844 0.611800 0.722600 
1.403960 0.206655 0.742866 0.138798 -0.080233 0.987060 0.657000 0.696300 
1.453112 0.329425 0.731114 0.221137 0.046541 0.974120 0.653300 0.675800 
1.433704 0.051226 0.711911 0.072604 -0.009461 0.997284 0.673600 0.714400 
1.513440 0.181633 0.710750 0.209204 -0.075930 0.974914 0.673300 0.690400 
1.758990 -0.152361 0.757161 0.026521 0.159520 0.986816 0.732500 0.714200 
1.693485 -0.079906 0.737722 -0.064760 0.273934 0.959532 0.718000 0.710000 
1.614197 -0.168384 0.766347 -0.037599 0.212195 0.976470 0.715000 0.728500 
1.822850 -0.230577 0.757663 0.107456 0.034181 0.993591 0.747200 0.719200 
1.898559 -0.144619 0.755220 0.005036 -0.009095 0.999939 0.749900 0.701400 
1.804775 0.231392 0.740682 -0.367107 -0.125248 0.921690 0.706900 0.659200 
1.704761 0.146623 0.690990 -0.242073 -0.041139 0.969359 0.700900 0.678900 
1.789945 0.127745 0.720650 -0.342967 -0.031617 0.938810 0.713500 0.674300 
1.619174 0.161904 0.685841 0.024659 -0.019166 0.999481 0.688600 0.684100 
1.692256 0.042611 0.695185 -0.131199 0.169561 0.976714 0.707800 0.693800 
1.718976 0.247437 0.704928 -0.282113 -0.109775 0.953063 0.694500 0.664300 
1.889246 0.213529 0.769050 -0.355113 -0.126957 0.926145 0.719400 0.654500 
1.842759 0.294620 0.766366 -0.378735 -0.152226 0.912870 0.706700 0.647600 
0.761267 0.777251 0.784776 0.043001 -0.036561 0.998383 0.526900 0.674400 
0.893292 0.694024 0.755448 0.209601 0.090060 0.973601 0.550800 0.674400 
0.640578 0.835355 0.770713 -0.133213 -0.079928 0.987854 0.506500 0.676800 
0.746626 0.854660 0.783801 0.039705 0.020081 0.998993 0.518700 0.665300 
0.424314 0.754139 0.756578 0.107791 -0.092349 0.989868 0.485100 0.705800 
0.548726 0.717186 0.746979 -0.036866 -0.106357 0.993622 0.504300 0.700300 
0.534104 0.794555 0.753552 -0.031922 -0.090579 0.995361 0.496000 0.691200 
0.442857 0.667200 0.745112 0.154668 -0.101016 0.982788 0.494600 0.715800 
0.916024 0.604409 0.766282 0.173223 0.115329 0.978088 0.561100 0.684400 
1.024097 0.592064 0.742473 0.112156 0.075228 0.990814 0.576200 0.676900 
0.939589 0.514227 0.769612 0.138615 0.011658 0.990265 0.571600 0.694400 
0.222214 -1.046511 0.746627 0.073794 -0.012604 0.997192 0.606500 0.962500 
0.182058 -1.112034 0.745479 0.035157 -0.039033 0.998596 0.606700 0.974600 
0.276575 -1.183197 0.743286 0.044679 0.058809 0.997253 0.624800 0.976100 
0.698231 -1.005913 0.709940 0.126072 0.020264 0.991791 0.664900 0.917000 
0.644732 -1.079017 0.725925 0.071657 0.120121 0.990143 0.664000 0.931200 
0.591202 -1.151041 0.734895 0.008789 0.177129 0.984130 0.662900 0.945300 
1.348525 -0.497743 0.723393 -0.147526 0.032472 0.988495 0.707600 0.794700 
1.431824 -0.410263 0.746430 -0.183447 -0.050600 0.981719 0.711200 0.776000 
1.276628 -0.417256 0.713808 -0.123234 -0.015778 0.992248 0.691600 0.790000 
1.130069 -0.409392 0.709571 0.055971 0.004334 0.998413 0.672000 0.801300 
1.213253 -0.320603 0.707611 -0.052461 -0.028993 0.998199 0.675500 0.782500 
1.257730 -0.594236 0.728759 -0.059542 0.198431 0.978271 0.703700 0.815100 
1.423400 -0.570024 0.739851 -0.157628 0.104556 0.981933 0.723200 0.798000 
1.577485 -0.556841 0.774851 -0.123905 0.047853 0.991119 0.742100 0.783300 
1.314692 -0.041807 0.712353 -0.018586 0.011109 0.999756 0.665800 0.736800 
1.400342 -0.103573 0.728187 -0.098331 0.141057 0.985076 0.682000 0.737800 
1.252421 -0.113357 0.714095 -0.005097 0.022156 0.999725 0.663600 0.751600 
1.228495 0.016992 0.716576 -0.012513 -0.008850 0.999878 0.649800 0.736300 
1.458804 -0.194986 0.757032 -0.157231 0.120426 0.980163 0.697000 0.745100 
1.523044 -0.284927 0.769587 -0.132389 0.005860 0.991150 0.712700 0.751700 
1.301773 -0.224201 0.721775 -0.138554 0.026429 0.989990 0.679100 0.762200 
1.621668 -0.023123 0.714952 0.004089 0.303537 0.952788 0.704100 0.708500 
1.490391 -0.017289 0.716264 0.020386 0.212592 0.976897 0.686600 0.718800 
1.550773 -0.091364 0.739994 -0.048555 0.287240 0.956603 0.700500 0.723600 
1.562865 0.049053 0.697511 0.087924 0.115268 0.989410 0.690500 0.703900 
1.152344 0.574506 0.740523 0.003693 -0.020386 0.999756 0.594200 0.668500 
1.194013 0.479870 0.734975 -0.003723 -0.025239 0.999664 0.607400 0.677600 
0.815624 -1.041894 0.690325 0.090884 0.013825 0.995758 0.683100 0.911900 
0.867728 -1.146539 0.693312 0.061464 0.125919 0.990112 0.698400 0.921500 
0.905544 -1.213819 0.705335 0.003021 0.214545 0.976684 0.708800 0.927200 
0.028761 -0.316247 0.766833 -0.036134 0.075900 0.996429 0.521600 0.881500 
0.206904 0.018201 0.720845 0.073611 0.203345 0.976318 0.517200 0.822000 
0.274885 0.122637 0.695291 -0.005524 0.024293 0.999664 0.517500 0.802400 
0.133346 0.103095 0.708453 0.086978 0.150884 0.984710 0.500800 0.816900 
1.103458 0.075798 0.705602 -0.066866 0.007263 0.997711 0.628800 0.738900 
1.140233 -0.064926 0.724178 0.024445 0.051149 0.998383 0.645100 0.754600 
1.050948 -0.146906 0.732867 0.043123 0.031953 0.998535 0.640200 0.773000 
1.161490 -0.202825 0.716199 0.049104 -0.041169 0.997925 0.659100 0.771100 
0.861906 -0.252678 0.745835 0.122806 0.145451 0.981689 0.624400 0.803000 
0.938132 -0.129363 0.725596 0.003815 0.131901 0.991241 0.624200 0.780200 
1.111621 -0.623286 0.729473 -0.072207 0.168645 0.983001 0.687100 0.831300 
1.192650 -0.505542 0.710349 -0.021546 0.087924 0.995880 0.688000 0.808800 
1.054147 -0.523251 0.719335 0.014771 0.022706 0.999603 0.671500 0.822800 
0.998622 -0.419652 0.726909 0.110050 -0.055666 0.992340 0.655800 0.813700 
1.360169 -0.333456 0.735173 -0.199103 -0.021699 0.979705 0.695600 0.771800 
1.072189 -0.298499 0.718424 0.116947 -0.046297 0.992035 0.655400 0.791400 
0.965464 -0.277493 0.736880 0.099948 0.002869 0.994964 0.639800 0.797600 
0.889413 0.232685 0.726574 0.080569 -0.215430 0.973174 0.588200 0.736100 
0.949050 0.289845 0.740702 0.076571 -0.225562 0.971191 0.591200 0.723500 
0.827975 0.288036 0.745304 0.041414 -0.186041 0.981658 0.575700 0.733900 
0.970985 -0.649710 0.716891 -0.074435 0.052644 0.995819 0.671100 0.846600 
0.847615 -0.672018 0.717992 0.145756 -0.039583 0.988525 0.656900 0.860000 
0.778302 -0.798953 0.725785 0.133366 -0.122959 0.983398 0.658300 0.882700 
0.650038 -0.744542 0.751849 0.102756 -0.131413 0.985961 0.637200 0.886300 
1.916590 0.116524 0.771662 -0.341166 -0.052797 0.938505 0.730900 0.665100 
1.589419 0.409298 0.712277 -0.044771 -0.168920 0.984588 0.664400 0.653700 
1.717168 0.454223 0.751044 -0.243446 -0.235939 0.940764 0.677300 0.637000 
1.639683 0.534640 0.749541 -0.125248 -0.193823 0.972991 0.660700 0.632800 
1.314086 -1.106866 0.741331 0.001923 0.063601 0.997955 0.753000 0.878600 
1.410551 -1.197919 0.762858 -0.067873 0.167394 0.983520 0.773000 0.882600 
1.410915 -1.031390 0.735584 -0.045656 0.004364 0.998932 0.759400 0.860400 
1.514514 -1.140918 0.762653 -0.114811 0.090854 0.989196 0.781800 0.866300 
0.184669 -0.547902 0.805472 -0.012482 0.092380 0.995636 0.560800 0.899300 
1.718478 -0.551486 0.775909 0.075350 0.017518 0.996979 0.759900 0.770700 
1.658583 -0.454647 0.775512 -0.016846 0.009095 0.999786 0.744200 0.762800 
1.850574 -0.558236 0.759253 0.119114 -0.002472 0.992859 0.777600 0.760500 
1.772579 -0.656309 0.765238 0.110996 -0.023591 0.993530 0.775500 0.780100 
1.739414 -0.345413 0.776108 0.084567 -0.013215 0.996307 0.745800 0.741500 
1.592019 -0.367662 0.772200 -0.086947 -0.037690 0.995483 0.728500 0.756900 
1.678423 -0.248867 0.782289 0.026032 0.067110 0.997375 0.729900 0.733800 
1.506174 -0.481939 0.757536 -0.173620 0.000000 0.984802 0.726700 0.779300 
0.153361 0.304811 0.713540 -0.017426 -0.149663 0.988556 0.486800 0.788400 
0.310565 0.231681 0.708110 -0.072390 -0.135594 0.988098 0.513200 0.784900 
1.605720 -1.068339 0.763436 -0.045564 0.008332 0.998901 0.787700 0.849000 
1.671674 -0.817349 0.767480 0.052614 -0.048189 0.997436 0.775700 0.810000 
1.573204 -0.708013 0.778219 -0.026551 -0.029817 0.999176 0.753900 0.803700 
1.693278 -1.000763 0.758333 0.051698 -0.032807 0.998108 0.793500 0.832600 
1.640170 -0.643743 0.783383 0.003479 -0.008240 0.999939 0.757300 0.789500 
1.965780 -0.214964 0.745635 0.088717 -0.050844 0.994751 0.764400 0.705100 
1.887856 -0.338203 0.753941 0.135990 0.000610 0.990692 0.764400 0.728000 
1.958160 -0.331742 0.741923 0.169713 -0.014069 0.985382 0.773000 0.721300 
1.796642 -0.449188 0.763120 0.107028 -0.002136 0.994232 0.761700 0.750500 
1.830760 -0.077274 0.748412 -0.101169 0.071749 0.992248 0.735600 0.698100 
1.954728 -0.099198 0.760368 -0.065218 -0.068270 0.995514 0.753500 0.690600 
0.203989 -0.299481 0.759208 -0.013489 0.105838 0.994263 0.542900 0.864600 
0.262639 -0.201783 0.754106 0.028626 0.105625 0.993988 0.542500 0.846600 
0.021755 -0.630001 0.788044 -0.173162 -0.138249 0.975127 0.546400 0.923900 
0.825860 0.403394 0.765706 -0.035340 -0.106967 0.993622 0.565900 0.718700 
0.609644 -0.852517 0.730116 0.082827 -0.162267 0.983245 0.640800 0.904000 
0.738316 -0.902699 0.709904 0.108524 -0.130833 0.985443 0.661600 0.899900 
0.944096 0.402095 0.765429 0.111484 -0.115238 0.987030 0.581400 0.708900 
1.638680 0.242026 0.690210 0.030030 -0.067507 0.997253 0.684500 0.671800 
1.538708 0.285659 0.708449 0.172857 -0.042787 0.984008 0.668000 0.674400 
1.656455 0.325453 0.699118 -0.134526 -0.166906 0.976745 0.680000 0.659200 
1.791388 0.378089 0.759259 -0.349254 -0.192816 0.916959 0.693200 0.640800 
1.822566 -0.848435 0.756248 0.067995 -0.043306 0.996734 0.797800 0.801400 
1.724679 -0.736449 0.767913 0.075472 -0.052583 0.995758 0.775900 0.794800 
1.761581 -0.921321 0.757044 0.066286 -0.042726 0.996857 0.795800 0.816300 
1.863114 -0.760724 0.756626 0.084719 -0.015717 0.996277 0.795800 0.786400 
1.903920 -0.667584 0.751984 0.112033 -0.003937 0.993683 0.793500 0.770500 
1.321801 0.576383 0.739931 0.008972 -0.019135 0.999756 0.616000 0.654000 
1.346232 0.729389 0.742955 0.046480 -0.063143 0.996918 0.606700 0.631500 
1.495719 0.476238 0.726775 0.031587 -0.119907 0.992279 0.646800 0.652700 
1.450969 0.674392 0.737220 -0.019257 0.004547 0.999786 0.624800 0.630000 
1.473362 0.574875 0.740320 -0.011505 -0.046602 0.998840 0.635800 0.641400 
1.545443 0.603159 0.747033 -0.080752 -0.083285 0.993225 0.642900 0.631600 
1.010462 -1.202353 0.712743 -0.163762 0.104740 0.980895 0.721500 0.916900 
1.143053 -1.247400 0.751863 -0.186651 0.087954 0.978454 0.742400 0.911700 
1.088778 -1.341293 0.747698 -0.164800 0.124668 0.978393 0.743000 0.928800 
1.200793 -1.150756 0.746256 -0.064394 0.062075 0.995972 0.741900 0.894000 
1.196065 -1.299207 0.764755 -0.125797 0.104343 0.986541 0.753500 0.914100 
1.261439 -1.052273 0.744443 0.024751 -0.075045 0.996857 0.741700 0.875800 
0.579417 0.433483 0.739923 -0.068117 0.012024 0.997589 0.531500 0.735400 
0.698522 0.406428 0.748208 -0.101444 -0.051973 0.993469 0.549200 0.729000 
0.475491 -0.810080 0.752926 0.086154 -0.197363 0.976501 0.620000 0.909700 
1.517716 0.379425 0.712494 0.144810 -0.026673 0.989074 0.657600 0.663700 
0.317869 -0.076309 0.735838 0.083407 0.183905 0.979369 0.539400 0.825300 
1.945107 0.013199 0.768810 -0.210303 -0.030580 0.977142 0.743000 0.676500 
0.582104 0.552779 0.732099 -0.092044 -0.013001 0.995666 0.522100 0.719300 
0.998254 0.683528 0.733324 0.089175 0.079196 0.992859 0.565300 0.666900 
1.061924 0.498501 0.742274 0.129734 -0.006989 0.991516 0.588700 0.686200 
0.537568 -1.222493 0.747208 -0.037873 0.158025 0.986694 0.661800 0.959300 
0.483639 -1.293923 0.750500 -0.038087 0.099948 0.994232 0.660700 0.973400 
0.421132 -1.173041 0.740174 0.024903 0.126072 0.991699 0.642700 0.962600 
0.381269 -1.238263 0.747888 0.021332 0.104526 0.994263 0.642900 0.974600 
0.310064 -0.907853 0.744835 0.052156 -0.121921 0.991150 0.606500 0.936600 
0.348386 -0.798391 0.766458 0.042177 -0.215094 0.975677 0.602500 0.918800 
0.755824 -1.114612 0.711043 0.187811 0.139225 0.972259 0.681300 0.926600 
1.306330 -1.258044 0.768563 -0.052461 0.161351 0.985473 0.764400 0.899400 
-0.115369 -0.527556 0.766922 -0.123234 -0.042695 0.991424 0.520200 0.921800 
-0.215751 -0.519137 0.757868 -0.067782 -0.071993 0.995086 0.506500 0.929100 
-0.224559 -0.405455 0.764758 -0.028138 0.035401 0.998962 0.496000 0.914700 
-0.141372 -0.391073 0.766592 -0.043153 0.047334 0.997925 0.505600 0.905800 
-0.069041 -0.259927 0.754077 -0.073519 0.072634 0.994629 0.504300 0.882300 
-0.226518 -0.170584 0.734162 -0.100772 0.005280 0.994873 0.476500 0.883600 
-0.235137 -0.288940 0.748765 -0.065767 0.112583 0.991455 0.485100 0.900100 
0.096155 0.402350 0.727317 -0.031312 -0.185247 0.982177 0.471400 0.780200 
0.895030 -0.779734 0.714568 -0.056917 -0.036988 0.997681 0.671900 0.870300 
1.819519 0.030069 0.735123 -0.255989 0.084140 0.962981 0.725400 0.684800 
0.181983 0.207781 0.697933 0.021516 -0.053102 0.998352 0.498500 0.798900 
3 0 1 2 
3 0 3 4 
3 5 1 6 
3 7 8 5 
3 9 10 11 
3 12 11 13 
3 9 14 15 
3 16 15 17 
3 18 19 20 
3 21 19 22 
3 23 24 25 
3 24 26 27 
3 28 29 30 
3 31 32 28 
3 33 34 35 
3 36 37 33 
3 38 39 40 
3 41 42 39 
3 43 42 41 
3 41 38 44 
3 45 46 47 
3 47 48 49 
3 50 51 52 
3 52 48 53 
3 54 51 13 
3 51 49 52 
3 55 56 49 
3 7 45 56 
3 57 58 59 
3 60 59 61 
3 62 63 57 
3 64 65 63 
3 58 66 59 
3 45 58 46 
3 67 68 69 
3 69 70 71 
3 72 73 67 
3 74 75 73 
3 67 76 68 
3 12 76 75 
3 65 77 48 
3 65 46 63 
3 53 77 70 
3 52 53 68 
3 78 79 80 
3 81 82 83 
3 83 84 85 
3 86 87 88 
3 60 61 89 
3 60 90 91 
3 91 92 93 
3 90 30 91 
3 92 62 93 
3 94 63 62 
3 27 95 96 
3 95 97 98 
3 99 71 100 
3 72 67 99 
3 98 74 73 
3 97 101 98 
3 102 103 104 
3 105 106 102 
3 104 107 108 
3 103 109 104 
3 110 111 112 
3 113 114 110 
3 115 112 88 
3 111 116 112 
3 117 118 119 
3 118 120 121 
3 122 119 118 
3 121 123 124 
3 117 125 118 
3 126 119 122 
3 127 123 128 
3 122 121 124 
3 129 123 127 
3 130 131 132 
3 133 132 134 
3 130 135 131 
3 120 125 135 
3 136 130 137 
3 138 139 140 
3 141 142 143 
3 144 145 146 
3 147 148 149 
3 150 151 32 
3 152 32 31 
3 153 150 154 
3 151 155 32 
3 151 153 142 
3 156 157 158 
3 24 157 26 
3 159 160 161 
3 158 145 144 
3 145 23 162 
3 163 133 134 
3 164 165 166 
3 167 166 168 
3 169 164 170 
3 171 169 172 
3 173 174 175 
3 176 175 177 
3 171 173 178 
3 178 176 164 
3 179 42 43 
3 43 177 174 
3 176 177 44 
3 38 180 44 
3 1 181 2 
3 182 5 6 
3 4 66 6 
3 4 3 61 
3 5 182 7 
3 182 66 58 
3 183 10 9 
3 15 14 184 
3 14 12 75 
3 13 50 12 
3 17 15 184 
3 184 75 74 
3 185 186 187 
3 188 187 189 
3 190 191 192 
3 191 193 185 
3 194 191 185 
3 195 196 193 
3 192 191 194 
3 194 197 198 
3 197 187 188 
3 188 199 200 
3 201 202 203 
3 204 205 201 
3 206 207 208 
3 209 210 207 
3 211 207 206 
3 212 213 206 
3 80 79 214 
3 106 80 215 
3 216 214 217 
3 218 219 220 
3 221 152 219 
3 154 221 218 
3 18 22 19 
3 215 80 20 
3 20 222 215 
3 223 222 224 
3 159 225 160 
3 160 156 158 
3 226 227 225 
3 228 82 229 
3 116 229 230 
3 231 232 233 
3 234 233 235 
3 236 237 231 
3 172 238 237 
3 199 239 240 
3 241 239 242 
3 203 243 244 
3 245 243 240 
3 246 247 248 
3 199 240 247 
3 210 249 246 
3 202 246 248 
3 103 223 250 
3 250 251 109 
3 42 252 253 
3 254 253 111 
3 255 36 33 
3 122 255 126 
3 256 257 258 
3 135 258 131 
3 259 260 242 
3 261 262 260 
3 263 264 8 
3 8 7 56 
3 265 266 267 
3 267 268 183 
3 236 266 265 
3 171 237 236 
3 245 241 262 
3 269 244 243 
3 235 262 270 
3 262 241 260 
3 234 270 268 
3 266 233 234 
3 271 263 10 
3 270 261 271 
3 11 54 13 
3 263 55 54 
3 259 186 196 
3 181 260 259 
3 272 3 0 
3 272 273 274 
3 275 183 276 
3 174 265 275 
3 276 16 277 
3 278 16 17 
3 208 279 212 
3 280 281 282 
3 283 284 285 
3 168 166 285 
3 284 286 285 
3 23 157 24 
3 25 287 34 
3 288 289 238 
3 290 288 291 
3 292 293 289 
3 293 244 232 
3 248 243 203 
3 201 203 294 
3 293 232 295 
3 232 269 233 
3 296 29 155 
3 29 297 30 
3 167 168 298 
3 299 300 167 
3 167 298 301 
3 238 295 237 
3 288 238 302 
3 303 304 305 
3 140 304 138 
3 306 290 138 
3 304 292 306 
3 294 293 292 
3 205 307 201 
3 308 205 303 
3 35 100 309 
3 309 310 126 
3 100 71 309 
3 96 100 287 
3 34 287 35 
3 311 34 37 
3 89 274 312 
3 3 272 274 
3 313 314 278 
3 278 17 74 
3 315 273 195 
3 312 315 224 
3 252 314 228 
3 314 277 278 
3 200 209 316 
3 197 188 200 
3 316 209 211 
3 317 316 318 
3 317 318 280 
3 211 319 318 
3 320 321 299 
3 302 321 291 
3 320 299 322 
3 300 170 167 
3 172 300 302 
3 291 323 324 
3 109 325 326 
3 103 250 109 
3 325 251 190 
3 327 190 192 
3 326 107 104 
3 328 325 329 
3 329 327 330 
3 331 42 254 
3 110 254 111 
3 332 40 331 
3 38 41 39 
3 333 331 114 
3 334 40 332 
3 333 335 332 
3 180 165 176 
3 180 38 336 
3 7 182 45 
3 47 46 65 
3 13 51 50 
3 50 68 76 
3 55 49 51 
3 263 8 55 
3 337 338 22 
3 338 89 312 
3 339 101 97 
3 82 339 84 
3 192 194 198 
3 340 198 317 
3 327 192 340 
3 340 317 280 
3 165 180 336 
3 334 283 336 
3 46 58 57 
3 62 57 93 
3 77 65 64 
3 64 94 341 
3 69 68 53 
3 72 98 73 
3 48 77 53 
3 56 47 49 
3 99 69 71 
3 70 77 310 
3 342 307 308 
3 213 319 211 
3 343 22 18 
3 152 31 343 
3 105 78 106 
3 106 215 344 
3 102 344 103 
3 344 215 222 
3 103 344 223 
3 223 224 345 
3 81 346 230 
3 346 347 87 
3 85 348 81 
3 230 229 81 
3 347 348 349 
3 225 350 156 
3 84 351 350 
3 230 346 86 
3 112 86 88 
3 116 230 86 
3 111 352 116 
3 352 228 229 
3 253 352 111 
3 90 60 89 
3 66 4 61 
3 297 257 92 
3 60 91 93 
3 72 99 96 
3 27 96 287 
3 73 75 76 
3 278 74 101 
3 328 329 330 
3 335 353 334 
3 105 102 108 
3 113 110 115 
3 354 37 36 
3 149 354 355 
3 356 355 357 
3 126 117 119 
3 122 124 358 
3 124 359 360 
3 23 25 311 
3 37 148 311 
3 125 256 258 
3 125 120 118 
3 127 128 136 
3 128 120 135 
3 136 128 130 
3 132 131 134 
3 290 324 139 
3 306 288 290 
3 155 151 141 
3 143 361 141 
3 361 296 155 
3 143 163 361 
3 146 162 147 
3 311 162 23 
3 148 147 162 
3 148 37 354 
3 150 152 221 
3 153 151 150 
3 161 158 144 
3 156 26 157 
3 91 30 92 
3 338 90 89 
3 31 30 337 
3 152 150 32 
3 25 24 27 
3 156 350 26 
3 351 97 27 
3 98 101 74 
3 361 134 296 
3 133 137 132 
3 193 186 185 
3 2 196 273 
3 179 362 277 
3 174 275 362 
3 77 341 310 
3 341 94 256 
3 176 165 164 
3 172 169 170 
3 175 174 177 
3 171 236 173 
3 44 177 41 
3 362 43 174 
3 5 264 1 
3 0 4 6 
3 14 11 12 
3 276 9 15 
3 187 186 189 
3 251 193 191 
3 188 189 199 
3 242 189 186 
3 307 363 202 
3 202 248 203 
3 206 208 212 
3 210 363 208 
3 20 214 18 
3 217 214 79 
3 219 18 216 
3 218 221 219 
3 21 224 222 
3 22 338 21 
3 225 85 350 
3 159 226 225 
3 81 83 85 
3 228 313 82 
3 295 232 231 
3 236 231 266 
3 247 240 248 
3 245 240 241 
3 249 199 247 
3 249 210 209 
3 250 345 251 
3 224 315 345 
3 252 228 352 
3 42 179 252 
3 357 36 358 
3 33 37 34 
3 256 125 117 
3 310 117 126 
3 94 62 257 
3 258 257 364 
3 258 364 131 
3 364 297 296 
3 241 240 239 
3 259 242 186 
3 270 262 261 
3 261 181 264 
3 271 264 263 
3 264 181 1 
3 267 266 234 
3 173 265 174 
3 234 235 270 
3 269 245 235 
3 275 267 183 
3 270 271 268 
3 268 10 183 
3 10 263 54 
3 181 259 2 
3 273 272 2 
3 362 276 277 
3 183 9 276 
3 363 342 279 
3 363 210 202 
3 317 200 316 
3 327 280 282 
3 353 284 283 
3 336 283 165 
3 30 297 92 
3 343 31 337 
3 25 27 287 
3 351 339 97 
3 289 295 238 
3 292 289 306 
3 203 244 294 
3 244 269 232 
3 131 364 296 
3 141 361 155 
3 170 164 166 
3 168 286 298 
3 171 178 169 
3 302 238 172 
3 305 304 140 
3 304 204 292 
3 204 294 292 
3 303 205 204 
3 287 100 35 
3 358 36 255 
3 89 61 274 
3 21 312 224 
3 313 101 339 
3 228 314 313 
3 273 196 195 
3 345 195 251 
3 43 41 177 
3 179 277 314 
3 77 64 341 
3 35 309 126 
3 197 200 317 
3 207 210 208 
3 322 299 301 
3 321 300 299 
3 302 300 321 
3 290 291 324 
3 325 328 326 
3 190 251 191 
3 254 42 253 
3 332 331 333 
3 44 180 176 
3 178 173 175 
3 8 264 5 
3 45 182 58 
3 54 55 51 
3 184 14 75 
3 337 90 338 
3 28 155 29 
3 96 95 72 
3 350 351 26 
3 200 199 249 
3 194 185 197 
3 251 195 193 
3 340 192 198 
3 166 165 285 
3 40 42 331 
3 47 65 48 
3 59 66 61 
3 12 50 76 
3 69 53 70 
3 202 210 246 
3 308 307 205 
3 206 213 211 
3 318 316 211 
3 6 66 182 
3 274 273 315 
3 276 15 16 
3 17 184 74 
3 21 20 19 
3 220 219 216 
3 216 18 214 
3 223 344 222 
3 348 347 346 
3 348 85 227 
3 349 348 227 
3 85 84 350 
3 229 82 81 
3 86 346 87 
3 94 64 63 
3 337 30 90 
3 96 99 100 
3 95 98 72 
3 327 340 280 
3 329 325 190 
3 336 38 334 
3 332 335 334 
3 291 288 302 
3 233 269 235 
3 199 189 239 
3 204 201 294 
3 109 251 325 
3 102 106 344 
3 115 110 112 
3 253 252 352 
3 355 354 357 
3 360 357 358 
3 360 356 357 
3 255 122 358 
3 358 124 360 
3 120 128 123 
3 255 33 35 
3 149 148 354 
3 256 94 257 
3 137 130 132 
3 135 125 258 
3 124 129 359 
3 271 261 264 
3 52 49 48 
3 285 165 283 
3 172 170 300 
3 138 290 139 
3 294 244 293 
3 63 46 57 
3 257 297 364 
3 27 97 95 
3 71 70 310 
3 141 151 142 
3 31 28 30 
3 311 25 34 
3 158 157 145 
3 61 3 274 
3 343 337 22 
3 67 73 76 
3 82 313 339 
3 219 343 18 
3 32 155 28 
3 84 339 351 
3 161 160 158 
3 235 245 262 
3 242 239 189 
3 171 172 237 
3 267 234 268 
3 250 223 345 
3 21 338 312 
3 198 197 317 
3 2 259 196 
3 252 179 314 
3 83 82 84 
3 179 43 362 
3 173 236 265 
3 310 341 117 
3 296 297 29 
3 56 45 47 
3 14 9 11 
3 208 363 279 
3 246 249 247 
3 200 249 209 
3 330 327 282 
3 285 286 168 
3 176 178 175 
3 260 241 242 
3 1 0 6 
3 362 275 276 
3 268 271 10 
3 169 178 164 
3 306 289 288 
3 237 295 231 
3 342 363 307 
3 104 109 326 
3 193 196 186 
3 278 277 16 
3 334 353 283 
3 117 341 256 
3 357 354 36 
3 50 52 68 
3 312 274 315 
3 11 10 54 
3 99 67 69 
3 345 315 195 
3 154 150 221 
3 160 225 156 
3 313 278 101 
3 245 269 243 
3 289 293 295 
3 134 131 296 
3 93 57 59 
3 309 71 310 
3 225 227 85 
3 266 231 233 
3 280 318 281 
3 167 170 166 
3 275 265 267 
3 181 261 260 
3 20 80 214 
3 116 352 229 
3 272 0 2 
3 55 8 56 
3 121 120 123 
3 334 38 40 
3 106 78 80 
3 138 304 306 
3 303 204 304 
3 320 323 321 
3 291 321 323 
3 299 167 301 
3 39 42 40 
3 114 331 254 
3 248 240 243 
3 126 255 35 
3 81 348 346 
3 23 145 157 
3 112 116 86 
3 311 148 162 
3 146 145 162 
3 26 351 27 
3 122 118 121 
3 92 257 62 
3 130 128 135 
3 129 124 123 
3 361 163 134 
3 219 152 343 
3 59 60 93 
3 20 21 222 
3 110 114 254 
3 197 185 187 
3 108 102 104 
3 327 329 190 
3 201 307 202 
3 211 209 207 
3 318 319 281 
